PathFileType	4	(X/Y/Z)	C:\Users\Basilio\Documents\Thesis Gigler\squatting_fais\c3dfiles\044\SJ_pre5\markers_experimental.trc
DataRate	CameraRate	NumFrames	NumMarkers	Units	OrigDataRate	OrigDataStartFrame	OrigNumFrames
200.000000	200.000000	4	61	mm	200.000000	1175	1880
Frame#	Time	FHD			LBHD			RBHD			C7			T10			CLAV			LSHO			LUUPA			LMUPA			LDUPA			LLEP			LMEP			LRAD			LUL			LRFIN			RSHO			RUPA1			RMUPA			RDUPA			RLEP			RMEP			RRAD			RUL			RUFIN			LASI			RASI			USACR			LSACR			RSACR			LTHI1			LTHI2			LTHI3			LTHI4			LLFC			LMFC			LTIB1			LTIB2			LTIB3			LTIB4			LLMAL			LMMAL			LHEE			LMT1			LMT2			LMT5			RTHI			RTHI2			RTHI3			RTHI4			RLFC			RMFC			RTIB1			RTIB2			RTIB3			RTIB4			RLMAL			RMMAL			RHEE			RMT1			RMT2			RMT5			
		X1	Y1	Z1	X2	Y2	Z2	X3	Y3	Z3	X4	Y4	Z4	X5	Y5	Z5	X6	Y6	Z6	X7	Y7	Z7	X8	Y8	Z8	X9	Y9	Z9	X10	Y10	Z10	X11	Y11	Z11	X12	Y12	Z12	X13	Y13	Z13	X14	Y14	Z14	X15	Y15	Z15	X16	Y16	Z16	X17	Y17	Z17	X18	Y18	Z18	X19	Y19	Z19	X20	Y20	Z20	X21	Y21	Z21	X22	Y22	Z22	X23	Y23	Z23	X24	Y24	Z24	X25	Y25	Z25	X26	Y26	Z26	X27	Y27	Z27	X28	Y28	Z28	X29	Y29	Z29	X30	Y30	Z30	X31	Y31	Z31	X32	Y32	Z32	X33	Y33	Z33	X34	Y34	Z34	X35	Y35	Z35	X36	Y36	Z36	X37	Y37	Z37	X38	Y38	Z38	X39	Y39	Z39	X40	Y40	Z40	X41	Y41	Z41	X42	Y42	Z42	X43	Y43	Z43	X44	Y44	Z44	X45	Y45	Z45	X46	Y46	Z46	X47	Y47	Z47	X48	Y48	Z48	X49	Y49	Z49	X50	Y50	Z50	X51	Y51	Z51	X52	Y52	Z52	X53	Y53	Z53	X54	Y54	Z54	X55	Y55	Z55	X56	Y56	Z56	X57	Y57	Z57	X58	Y58	Z58	X59	Y59	Z59	X60	Y60	Z60	X61	Y61	Z61	

1176	5.875	91.61665344238283	1137.481811523438	-909.6124267578127	-34.28620147705079	1118.400024414063	-1003.466491699219	-98.55471801757815	1112.368408203125	-850.4534912109377	-162.0231628417969	1024.991821289063	-925.985778808594	-404.7185058593751	852.6958618164065	-908.5952148437502	-96.43494415283206	891.4863891601565	-923.157653808594	-99.69055938720706	943.4992675781252	-1098.705688476563	-269.6815490722657	889.4923095703127	-1252.796875	-286.4430541992188	845.1867675781252	-1240.368774414063	-326.7907714843751	862.4958496093752	-1282.283447265625	-375.2757568359376	829.7681884765627	-1294.294311523438	-419.8921203613282	888.168640136719	-1250.000244140625	-535.5136718750001	669.1174926757814	-1124.741821289063	-502.2844238281251	626.2432861328126	-1168.750244140625	-484.3936462402345	661.0378417968751	-1081.559448242188	-103.4918289184571	951.4861450195315	-740.5247192382814	-240.7186584472657	886.1274414062502	-573.1452636718751	-253.6257324218751	838.613952636719	-582.0788574218751	-287.7692260742188	850.467956542969	-535.0561523437501	-331.2521362304688	808.1004028320315	-517.8724975585939	-393.5897216796876	864.4246215820315	-545.4609985351564	-515.4311523437501	648.6199340820314	-662.6640014648439	-472.7288208007814	604.3245239257814	-622.0294799804689	-460.4173889160157	648.7879638671876	-714.4355468750001	-427.234100341797	615.6602783203126	-1025.771728515625	-427.6217041015626	597.8435058593751	-796.5228271484377	-529.6697998046876	738.7638549804689	-896.1506347656252	-560.6414184570314	721.1462402343751	-919.968688964844	-553.3879394531251	720.7886962890626	-864.912780761719	-448.5326232910157	529.7826538085939	-1127.502685546875	-365.6210632324219	525.6366577148439	-1149.547729492188	-341.5104064941407	566.3765258789064	-1136.767333984375	-331.1543273925782	477.6367187500001	-1158.565063476563	-198.6878967285157	415.0678710937501	-1171.2763671875	-182.2415771484375	399.7027282714845	-1058.17138671875	-245.9428405761719	257.0731811523438	-1090.733154296875	-300.9533691406251	232.4033660888672	-1157.700317382813	-274.8807983398438	214.9606018066407	-1122.303344726563	-332.6554565429688	164.40966796875	-1085.75634765625	-445.0864257812501	94.92466735839845	-1127.026000976563	-419.2765502929689	99.3958435058594	-1042.134765625	-511.2060546875001	51.70260238647462	-1077.904907226563	-293.8014831542969	60.08230209350587	-1075.545043945313	-298.4595336914063	62.69025039672853	-1121.844360351563	-335.8637390136719	40.71898651123048	-1166.803955078125	-382.7722473144532	487.3963928222657	-690.2871704101564	-315.6093750000001	500.918670654297	-687.3101196289064	-301.3678894042969	528.5695800781251	-695.9584960937501	-256.0190124511719	440.6643981933595	-691.6746215820314	-188.2490234375	388.903289794922	-699.5628662109376	-185.716781616211	380.4686279296876	-819.470886230469	-208.9852142333985	263.6274414062501	-731.8511352539064	-311.2163085937501	255.6015777587891	-686.6298828125001	-282.7747192382813	223.7773132324219	-704.8117065429689	-311.2687988281251	181.3761596679688	-732.5846557617189	-461.9883422851564	99.45697021484378	-715.3164672851564	-433.8596801757814	96.80025482177737	-800.8645629882815	-523.6708984375001	53.7948455810547	-766.6345214843751	-308.9786987304688	61.49361038208009	-755.2741699218751	-307.9323120117188	61.09921264648439	-718.6536865234376	-352.1421813964844	42.31315994262696	-669.5714721679689	
1177	5.88	91.6108856201172	1137.384643554688	-909.622741699219	-34.16743469238282	1118.478271484375	-1003.515930175781	-98.59677886962893	1112.361083984375	-850.544616699219	-162.1610107421875	1024.998901367188	-925.999938964844	-404.7744140625001	852.716491699219	-908.6666259765627	-96.526969909668	891.5549926757815	-923.114196777344	-99.81361389160159	943.4686279296877	-1098.77783203125	-269.7454528808594	889.5595703125002	-1252.817016601563	-286.4913330078126	845.1937255859377	-1240.421020507813	-326.8949890136719	862.5263671875002	-1282.284423828125	-375.2840270996094	829.7974853515627	-1294.296264648438	-419.935272216797	888.0512695312502	-1250	-535.6233520507814	669.1024780273439	-1124.777954101563	-502.3973693847657	626.1759643554689	-1168.832153320313	-484.4717712402345	661.0139770507814	-1081.677612304688	-103.6725234985352	951.4635009765627	-740.5081787109376	-240.8032836914063	886.001647949219	-573.1044311523439	-253.6186218261719	838.554870605469	-582.0928955078126	-287.9118652343751	850.4243774414065	-535.0461425781251	-331.3510131835938	808.078796386719	-517.8504028320314	-393.6800537109376	864.367614746094	-545.4702148437501	-515.5037841796876	648.7089233398439	-662.7296142578126	-472.853485107422	604.3282470703126	-622.0334472656251	-460.658416748047	648.7921752929689	-714.4066772460939	-427.364471435547	615.2310180664064	-1025.503173828125	-428.1966247558595	597.6279907226564	-796.3018188476565	-529.7278442382814	738.7250366210939	-896.179382324219	-560.6876831054689	721.1637573242189	-920.0569458007815	-553.5308227539064	720.8247680664064	-864.997009277344	-448.6378479003907	529.7107543945314	-1127.45166015625	-365.6526489257813	525.6837768554689	-1149.60009765625	-341.6228637695313	566.4052734375001	-1136.725341796875	-331.2514953613282	477.669647216797	-1158.58154296875	-198.7274017333985	415.0842895507814	-1171.218383789063	-182.2013092041016	399.712127685547	-1058.103393554688	-245.9765319824219	257.1353454589844	-1090.64990234375	-300.9699707031251	232.4305725097657	-1157.702392578125	-274.8739929199219	214.9627685546876	-1122.292114257813	-332.6758117675782	164.4361114501953	-1085.724365234375	-445.0458374023439	94.88433837890626	-1127.031860351563	-419.3469543457032	99.46780395507815	-1042.117553710938	-511.1721496582032	51.71284866333009	-1077.948608398438	-293.7514953613282	60.05296707153322	-1075.59375	-298.9821777343751	62.15732192993165	-1122.271606445313	-335.8039855957032	40.70366668701173	-1166.765625	-382.8446350097657	487.5071411132814	-690.3610839843751	-315.6591796875001	500.9596252441407	-687.3983764648439	-301.3842163085938	528.6473388671876	-696.1072387695314	-256.1647949218751	440.7154846191407	-691.7190551757814	-188.3267211914063	388.9598083496095	-699.5903320312501	-185.6524200439453	380.5653381347657	-819.5481567382815	-209.0347900390626	263.6469116210938	-731.9193725585939	-311.2727966308594	255.6353302001954	-686.7256469726564	-282.7967529296876	223.7783966064454	-704.8399658203126	-311.3079528808594	181.5908508300782	-732.6748657226564	-461.9812011718751	99.45166015625003	-715.3118896484376	-433.8838806152345	96.77384948730472	-800.8557128906252	-523.6773071289064	53.73918914794923	-766.5877075195314	-309.0630187988282	61.48106002807619	-755.2866821289064	-308.0568542480469	60.87293243408205	-718.7439575195314	-352.1743774414063	42.31525039672852	-669.5891723632814	
1178	5.885	91.50643920898439	1137.319091796875	-909.6464843750002	-34.29565429687501	1118.395385742188	-1003.522277832031	-98.68009185791018	1112.352905273438	-850.5452880859377	-162.2194366455078	1024.978637695313	-926.0386962890627	-404.8817443847657	852.7329101562502	-908.6839599609377	-96.57990264892581	891.492858886719	-923.2117919921877	-99.55696105957034	943.0676879882815	-1098.6787109375	-269.6622924804688	889.5659790039065	-1252.8427734375	-286.4536437988282	845.194763183594	-1240.51611328125	-326.8104858398438	862.5505981445315	-1282.361206054688	-375.3758544921876	829.7915039062502	-1294.368896484375	-419.9421691894532	888.0249633789065	-1250.036987304688	-535.6552124023439	669.0943603515626	-1124.81591796875	-502.372528076172	626.2028198242189	-1168.839233398438	-484.5343017578126	660.9941406250001	-1081.675170898438	-103.7875518798828	951.4653930664065	-740.5245361328126	-240.8999176025391	885.9675292968752	-573.0382690429689	-253.6613769531251	838.549499511719	-582.1431274414064	-288.0117797851563	850.3505859375002	-534.9606933593751	-331.4166564941407	808.042419433594	-517.7968139648439	-393.6988220214845	864.382263183594	-545.4685668945314	-515.5697631835939	648.7180786132814	-662.7498168945314	-473.3706359863282	604.7612304687501	-623.3801269531251	-460.6668395996095	648.8188476562501	-714.4126586914064	-428.1158447265626	614.6493530273439	-1025.669921875	-428.6303710937501	597.2196044921876	-796.5172119140627	-529.7345581054689	738.6878051757814	-896.268981933594	-560.8532714843751	721.1938476562501	-920.0964965820315	-553.6000976562501	720.8567504882814	-865.0734863281252	-448.5654602050782	529.7528076171876	-1127.488159179688	-365.7241210937501	525.6677246093751	-1149.520751953125	-341.6528625488282	566.3598022460939	-1136.748413085938	-331.2686157226563	477.5722656250001	-1158.528930664063	-198.7967681884766	415.1252746582032	-1171.165893554688	-182.2010040283203	399.7188415527345	-1058.080200195313	-246.0759582519532	257.3475341796876	-1090.590942382813	-300.9872131347657	232.4126739501954	-1157.678100585938	-274.8640136718751	214.9719696044922	-1122.271850585938	-332.7189025878907	164.4200592041016	-1085.736206054688	-445.0475158691407	94.89788055419923	-1127.00244140625	-419.3477478027345	99.47078704833987	-1042.12353515625	-511.193572998047	51.67396926879884	-1077.955322265625	-293.7993774414063	60.11463928222658	-1075.5380859375	-298.8191223144532	62.17821121215822	-1122.223754882813	-335.8634643554688	40.72050094604493	-1166.801879882813	-382.8848571777344	487.5405578613282	-690.4302978515626	-315.7066650390626	500.9252014160157	-687.4211425781251	-301.4848327636719	528.6522216796876	-696.0892333984376	-256.2800292968751	440.8006591796876	-691.7826538085939	-188.3717651367188	388.9866943359376	-699.5691528320314	-185.6916046142578	380.6773071289063	-819.5675048828127	-209.0501251220704	263.6557006835938	-731.8796386718751	-311.2951354980469	255.6057586669922	-686.6993408203126	-282.8125915527344	223.8139038085938	-704.7768554687501	-311.3247985839844	181.6094665527344	-732.7210693359376	-461.9929199218751	99.43280792236331	-715.3072509765626	-433.9078063964845	96.76152038574222	-800.856872558594	-523.7605590820314	53.86341857910158	-766.6517944335939	-309.0932617187501	61.42726135253908	-755.2924804687501	-308.0785522460938	60.95333480834962	-718.6835327148439	-352.1990966796876	42.3904037475586	-669.6359863281251	
1179	5.89	91.5246047973633	1137.310180664063	-909.711853027344	-34.2574577331543	1118.472290039063	-1003.556274414063	-98.64311981201175	1112.338134765625	-850.6322021484377	-162.28759765625	1024.95654296875	-926.0620727539065	-404.9271545410157	852.7691040039065	-908.7371215820315	-96.89614868164065	891.4331665039065	-923.171813964844	-99.89720153808597	943.463562011719	-1098.803344726563	-269.7821960449219	889.540222167969	-1252.880004882813	-286.5796508789063	845.1854248046877	-1240.495849609375	-326.9712524414063	862.566589355469	-1282.376586914063	-375.4283142089844	829.7427368164065	-1294.398803710938	-420.023895263672	887.983581542969	-1250.052124023438	-535.6226196289064	669.0105590820314	-1124.900390625	-502.414764404297	626.1726684570314	-1168.93310546875	-484.5802612304689	660.9898681640626	-1081.746337890625	-103.8892135620117	951.4210205078127	-740.5427246093751	-240.9291229248047	885.9531860351565	-573.0690917968751	-253.7132568359376	838.5462646484377	-582.1879272460939	-288.0664672851563	850.3319091796877	-534.9639892578126	-331.4436340332032	807.9802246093752	-517.8676757812501	-393.767791748047	864.410339355469	-545.5453491210939	-515.6419067382814	648.7280273437501	-662.7650146484376	-473.1199035644532	604.3676147460939	-622.1659545898439	-460.697723388672	648.7830200195314	-714.4636230468751	-428.441375732422	614.6522216796876	-1025.905151367188	-428.9013061523439	596.8417968750001	-796.8443603515627	-529.8001708984376	738.6707763671876	-896.2905883789065	-560.9591064453126	721.2575073242189	-920.1457519531252	-553.7024536132814	720.7871704101564	-865.0808105468752	-448.6299133300782	529.8522949218751	-1127.457275390625	-365.6842651367188	525.6707153320314	-1149.538818359375	-341.6741027832032	566.3853149414064	-1136.775634765625	-331.2745056152344	477.5734863281251	-1158.532470703125	-198.7848052978516	415.1500244140626	-1171.15380859375	-182.2133331298828	399.7042541503907	-1057.965942382813	-246.0443267822266	257.3790283203126	-1090.593627929688	-300.9756469726563	232.4122772216797	-1157.6259765625	-274.8596801757813	214.9781341552735	-1122.26171875	-332.7477111816407	164.4969787597657	-1085.677612304688	-445.0833435058595	95.1758270263672	-1126.935668945313	-419.3306579589845	99.43183898925784	-1042.139282226563	-511.1856994628907	51.68777084350587	-1077.956909179688	-293.7779235839844	60.07679367065431	-1075.52978515625	-298.5556335449219	62.83514404296876	-1121.851928710938	-335.8036193847657	40.70555496215821	-1166.762939453125	-382.9638061523438	487.5747375488282	-690.5496215820314	-315.7575988769532	500.9407348632814	-687.4155273437501	-301.5575561523438	528.7136840820314	-696.1834716796876	-256.3840942382813	440.794403076172	-691.8518066406251	-188.420166015625	389.2154541015626	-699.5786132812501	-185.87255859375	380.6844177246094	-819.562438964844	-209.0698699951172	263.6655578613282	-731.8861694335939	-311.3527221679688	255.5678710937501	-686.7415161132814	-282.8834228515626	223.7844390869141	-704.8215942382814	-311.3325805664063	181.5520172119141	-732.6777954101564	-462.0408325195314	99.41416931152347	-715.3369140625001	-433.9273681640626	96.73796081542972	-800.8641357421877	-523.6940917968751	53.67979431152345	-766.5787353515626	-309.0366516113282	61.52015686035158	-755.2731933593751	-308.0751647949219	60.98120498657228	-718.6881103515626	-352.1184082031251	42.30304336547852	-669.5786132812501	
